<?xml version="1.0" encoding="utf-8"?>
<!-- Generator: Adobe Illustrator 22.1.0, SVG Export Plug-In . SVG Version: 6.00 Build 0)  -->
<svg version="1.1" id="Capa_1" xmlns="http://www.w3.org/2000/svg" xmlns:xlink="http://www.w3.org/1999/xlink" x="0px" y="0px"
	 viewBox="0 0 419.4 540" style="enable-background:new 0 0 419.4 540;" xml:space="preserve">
<style type="text/css">
	.st0{fill:#F3B804;}
	.st1{fill:#F60000;}
</style>
<g>
	<g>
		<polygon class="st0" points="197.3,0.6 117.4,45.3 46.7,154.6 12.2,253 0.2,347.4 26.4,434.9 207.4,540 354.1,482.2 411.5,374.6 
			399.4,241 328,83 261.8,12.2 		"/>
		<path class="st1" d="M368.3,155.2c-4.2-9.3-8.6-18.4-13.2-27.2C335,89.7,297.3,30.8,247.1,8.7c-3.9-1.7-7.9-3.2-12-4.5
			c-6.4-2-12.9-3.3-19.7-3.9c-2.7-0.2-5.4-0.4-8.1-0.4c-3.4,0-6.8,0.2-10.1,0.6c-5.5,0.6-10.9,1.7-16.1,3.2c-6.9,2-13.6,4.7-20,8
			C114.2,35.9,78.9,91.4,59.6,128c-0.5,1-1.1,2.1-1.6,3.2c-2.1,4-4.1,8-6.1,12.1c-21.2,43.9-37.5,93.1-45.8,137.1
			c-2.1,11.3-3.7,22.2-4.8,32.6C0.5,322,0,330.7,0,338.9c0,5.5,0.3,10.9,0.7,16.3C1.6,366.4,3.4,377.4,6,388
			c22.1,88.3,102.6,152,201.3,152c30.4,0,59-6.1,84.8-17c8.5-3.6,16.7-7.7,24.6-12.4c10.5-6.2,20.3-13.3,29.4-21.2
			c6.3-5.5,12.2-11.3,17.8-17.5c3.7-4.1,7.3-8.4,10.6-12.8c2.5-3.3,4.9-6.7,7.2-10.2c2.4-3.6,4.6-7.2,6.7-10.9
			c3.1-5.4,6-11,8.6-16.8c4-8.9,7.4-18.2,10.1-27.8c1.7-6.2,3.2-12.5,4.3-18.9c2.1-11.6,3.2-23.5,3.2-35.7
			c0-43.7-13.5-102.3-35.3-157.5C375.9,172.5,372.2,163.8,368.3,155.2z M357.9,161.9c3.4,7.7,6.7,15.4,9.9,23.3
			c-7.3,1.6-14.8,2.4-21.7,2.7c-0.4-2.1-0.9-4.3-1.6-6.5c-1-3.1-2.4-5.9-3.9-8.6C346,169.4,352,165.7,357.9,161.9z M347.2,417.1
			c1.4-2.2,3-3.8,4.5-4.9c3.4-2.4,6.7-2.3,8.9-1.9c4.6,0.9,6,5.1,5.9,10.3c-0.1,3-0.6,6.3-1.1,9.7c-4.8,2.7-10.1,6.6-15,11.3
			c-1.3-3.1-2.7-6.2-4.2-8.9C344.3,429.6,342.4,424.5,347.2,417.1z M345.2,446.9c-1.4,1.6-2.8,3.2-4.1,4.9c-1.3,1.7-2.5,3.3-3.5,4.9
			c-7.2,1.5-15.5,2.7-22.4,2.3c-15.4-0.9-7.9-9.2-7.9-9.2s5.3-8.4,20.8-7.5C335,442.6,340.8,444.7,345.2,446.9z M351.7,301.7
			c0,0-4.1-1.4-13.2-27.7c-5.5-15.6-9.2-34.9-11.4-48.1c1-0.2,2.1-0.5,3.1-0.8c1-0.4,2-0.9,2.9-1.4c6.5,11.3,19.4,27.4,24.4,42.5
			C365.8,291.7,351.7,301.7,351.7,301.7z M316.9,127.6c0.1-9.4,1.2-22.3,8.7-26c6.2,9.7,11.6,19.1,16.2,27.7
			c0.1,6.6-1.1,12.8-2.8,18.5c-1.6,5.4-3.6,10.6-5.6,15.7c-5-5-11-8.6-17.2-10.2C316.6,144.6,316.9,135.8,316.9,127.6z M335.9,184.1
			c4.6,13.5,0.4,27.1-9.3,30.5c-9.6,3.4-21.7-5.2-27-19.4c-5.4-14.3-1.5-28.2,8.9-30.9C318.8,161.5,331.2,170.5,335.9,184.1z
			 M314.7,287.3c-1.6,1.8-3.2,2-4.7,1c-3.4-2-6.6-9.3-8.8-15.1c-4.4-11.9-5.3-24.2-4.4-35.1c0.8-8.5,2.3-16.6,4.1-24.2
			c4.5,5.2,9.6,8.9,14.9,10.8c0.5,10.3,1.2,21.1,2.2,31.3C319,266.5,320,281.4,314.7,287.3z M297.3,107.2
			c5.7,15.4,9.7,31.8,12.5,45.2c-1.9,0-3.7,0.2-5.5,0.6c-1.8,0.4-3.5,1.1-5,1.9c-7.1-11.9-15.2-26.8-21-44.4
			c-12.1-36.2-8.4-35.1-8.4-35.1S284.1,72,297.3,107.2z M242.8,222.3c-4.5-2.6-10.2-6.8-12.6-12.3c-1.1-2.5,0.7-12.5,1.5-15.4
			c2.7-9.5,13.7-9.1,21.5-8.2c11.6,1.3,24.5,1.8,35.3,1.9c0.6,3,1.5,6.1,2.7,9.2c0.8,2.1,1.8,4.2,2.8,6.1
			c-7.1,5.1-15.4,10.3-24.2,13.6C262.5,220,251.8,227.6,242.8,222.3z M264.4,321.1c-0.8,10.3-6.5,19.7-13.5,27.2
			c-4.1,4.4-8.6,8.5-13.2,12.5c-4-5.4-9.7-9.7-16.4-12.3c4.1-7.2,8.1-14.7,11.7-21.8c4.2-8.3,10.8-19.8,21.2-21.7
			c3.1-0.6,5.4,0,6.9,1.4C264.6,309.5,264.8,316,264.4,321.1z M287.5,176.4c-5.3-3.6-10.7-7.6-16-12c-8.8-7.4-17.5-17.2-23.1-29.1
			c-2.8-5.9-5.9-13.7-4.6-17.8c0.6-1.8,2-2.9,4.8-2.7c9.2,0.6,19.8,12.7,26.7,21.5c6,7.5,12.4,15.3,18.7,22.8
			C290.2,163.4,287.9,169.4,287.5,176.4z M260.4,31.8c5.6,4.6,12.5,13.4,15.5,21.5c0.9,2.4,1.2,3.6,1.1,4c-0.2,0.8-2.3-2.5-4.3-5
			c-4-5.3-9.8-12.1-16.1-17.6c-7-6.2-15.3-11.2-23-14.5c0.3-0.3,0.5-0.7,0.6-1.1c0.1-0.6-0.2-1.4-0.7-2.2
			C242.8,19.7,252.8,25.1,260.4,31.8z M230.2,21.4c4,2.5,7.8,5.4,11,8.4c4.3,4,7.2,8.3,7,10.6c-0.1,1.1-0.6,2.2-2.9,1.4
			c-1.1-0.4-2.5-1.1-4.5-2.4c-6.6-4-10.7-7.8-13.2-10.5c-2.4-2.5-5.3-5.1-8.3-7.5C223.9,21.6,227.7,21.7,230.2,21.4z M187.7,14.7
			c6.4-1.6,12.9-2.5,19.7-2.5c5.7,0,11.3,0.6,16.8,1.8c0.9,0.8,1.4,1.6,1.3,2.3c-0.2,2.8-8.6,2.7-19,2.6c-10.4-0.1-18.9-0.2-19.2-3
			C187.3,15.6,187.4,15.1,187.7,14.7z M207,276.9c0,0,11.8-2.3,11.8,29.3c0,14-2.3,28.5-4.9,40.4c-2.2-0.4-4.5-0.6-6.9-0.6
			c-2.4,0-4.7,0.2-6.9,0.6c-2.6-11.9-4.9-26.4-4.9-40.3C195.2,274.6,207,276.9,207,276.9z M198.2,31c-0.2-3.2,2.6-7.3,5.1-9.9
			c1.1,0,2.2,0,3.3,0c1.1,0,2.2,0,3.3,0c2.5,2.6,5.4,6.7,5.3,9.9c-0.1,5.3-8.4,4.4-8.4,4.6C206.7,35.5,198.4,36.3,198.2,31z
			 M182.3,20.8c2.5,0.5,6.1,0.5,10.4,0.4c-3,2.4-5.9,5.1-8.3,7.7c-2.5,2.7-6.4,6.5-13,10.6c-2,1.2-3.4,2-4.4,2.4
			c-2.3,0.8-2.9-0.3-3-1.5c-0.2-2.3,2.5-6.7,6.8-10.7C174,26.4,178,23.4,182.3,20.8z M125.2,196.6c1.5,7.3,1.7,15.6-1,23.6
			c-1.3,3.9-3.5,8.7-6.3,10.1c-1.3,0.6-2.7,0.5-4.3-0.7c-5.1-4-5.2-14.1-4.9-21.2c0.3-6.7,0.5-13.9,0.6-20.8c4.2-1,8.2-3.3,11.6-6.7
			C122.5,185.8,124.1,191.1,125.2,196.6z M124.7,142.4c4.2-4.8,8.4-9.7,12.3-14.5c4.5-5.6,11.1-13.4,17.1-13.2
			c1.8,0,2.8,0.9,3.3,2.2c1,2.9-0.6,8-2.2,11.8c-3.2,7.8-8.7,14.1-14.5,18.7c-3.4,2.7-7,5-10.5,7.2
			C129.4,149.8,127.6,145.5,124.7,142.4z M126.2,173.8c0.8-1.4,1.5-2.9,2-4.4c0.8-2.2,1.3-4.4,1.7-6.6c7.6,0.3,16.3,0.4,24.2,0
			c5.7-0.3,13.6-0.1,16.6,6.4c0.9,2,0.9,3.7,0.4,5.3c-1.2,3.5-5,6.1-8.2,7.7c-6.4,3.2-13,2.8-18.8,0.7
			C137.7,180.6,131.5,177.2,126.2,173.8z M151.9,306.5c1.6-1.3,3.8-2,6.9-1.4c10.4,1.9,17.1,13.4,21.2,21.7
			c3.6,7.2,7.7,14.8,11.9,22.1c-6.6,2.7-12.2,7-16.1,12.5c-4.8-4.1-9.4-8.4-13.7-13c-7-7.6-12.7-16.9-13.5-27.2
			C148.2,316,148.4,309.5,151.9,306.5z M134.9,53.5c2.3-6.5,7.1-13.4,11.9-18.3c10-7.6,20.7-13.9,32-17.9c-0.1,0.4-0.2,0.8-0.2,1.1
			c0,0.4,0.3,0.8,0.6,1.1C171,22.9,162,28.2,154.5,35c-6.3,5.5-12,12.3-16,17.6c-2,2.5-4.2,5.8-4.5,5
			C133.8,57.2,134.1,55.9,134.9,53.5z M123,106.5c9-23.8,14.3-20.4,14.3-20.4s6.6-0.1-2.1,24c-3.9,10.6-9.2,21.2-13.9,29.7
			c-1.1-0.7-2.2-1.2-3.5-1.6c-1.2-0.4-2.5-0.6-3.8-0.7C116.1,128.1,119,116.9,123,106.5z M114.9,145.7c7.4,2.4,10.5,12.1,6.9,21.7
			c-3.6,9.6-12.7,15.2-20.3,12.6c-7.5-2.6-10.6-12.2-6.8-21.5C98.6,149.1,107.6,143.3,114.9,145.7z M94.6,110.6
			c1.3-3.8,3.4-8.5,6-10.2c1.2-0.8,2.5-0.9,4,0c4.8,2.9,4.9,12.4,4.6,19.2c-0.2,5.9-0.3,12.1-0.2,18.3c-4.3,0.9-8.5,3.2-12.2,6.6
			c-1.3-3.8-2.5-7.7-3.4-11.8C92.1,125.9,92,118.2,94.6,110.6z M70,134.7c0.7,0.5,1.5,1.1,2.1,1.6c6.1,4.9,13.2,10,19.5,14.3
			c-1.1,1.7-2.1,3.6-2.9,5.6c-0.6,1.4-1,2.8-1.4,4.1c-6.7-0.5-14.3-1.5-21.1-3.7c-2-0.6-3.9-1.6-5.6-2.6
			C63.5,147.4,66.7,141,70,134.7z M50.6,283.1c0.8,2.7-0.8,7.1-2,10.6c-2.6,6.9-6.8,12.8-11.2,17.9c-2.6,3-5.2,5.8-7.8,8.7
			c-1.6-4.4-4-8.2-7.1-10.9c3-5.6,6.3-11.2,9.6-16.2c3.8-5.9,10.2-13.2,15.7-12.4C49.4,281,50.3,281.9,50.6,283.1z M21.6,266.2
			c10.8-22,15.9-16.8,15.4-17c0.5,0.2,4.8,1.1-6.3,25.6c-4.5,11-8.8,22.6-11.7,32.4c-1.1-0.5-2.2-0.9-3.4-1.1c-0.4-0.1-0.8,0-1.2,0
			C16.1,293.4,18.5,280,21.6,266.2z M12.2,338.9c0-7.6,0.5-15.6,1.3-24c0.3,0,0.6-0.1,0.9,0c7,1,11.6,9.8,11.7,19.9
			c0.1,10.1-4.3,19.1-11.3,20.2c-0.6,0.1-1.3,0-1.9,0C12.5,349.7,12.2,344.3,12.2,338.9z M37,416.8c0.3-0.1-4.2,4.1-12.7-11.1
			c-4.8-12.8-8.3-26.3-10.3-40.3c0-0.6-0.1-1.3-0.1-2c0.7,0,1.5-0.1,2.2-0.2c0.7-0.1,1.4-0.4,2.1-0.6c3.4,9.4,9.4,22.5,14.5,33.7
			C42.1,415.2,37.3,416.7,37,416.8z M53.6,387c-0.4,1.2-1.3,2-2.9,2.2c-5.6,0.6-12-6.7-15.8-12.7c-3.6-5.6-7.3-11.8-10.5-18.1
			c2.6-2.9,4.6-6.7,6-11c3.3,3.7,6.7,7.5,10,11.3c4.4,5.1,8.6,11,11.3,17.9C52.8,380,54.4,384.4,53.6,387z M64.7,334.7
			c-4.3,3.8-9.7,5.6-15.1,5.9c-6,0.4-12.2-0.3-17.7-1.5c0.1-1.5,0.2-3.1,0.2-4.7c0-2.2-0.2-4.4-0.6-6.5c6.5-1.8,14-3.8,20.7-5.5
			c4.8-1.3,11.7-2.1,15.6,1.8c1.2,1.2,1.6,2.3,1.6,3.5C69.3,330.3,66.8,332.8,64.7,334.7z M57.6,208.6c-2-0.1-3-0.9-3.5-2.2
			c-1.1-2.7,0.7-7.4,2.4-11c3.4-7.3,9.2-13.2,15.3-17.6c4.8-3.5,9.8-6.7,14.6-9.5c0.1,4.5,1.4,8.6,3.7,11.9
			c-4.8,5.3-9.8,10.9-14.3,16.1C71,201.8,64.1,209,57.6,208.6z M79.4,234.8c0,0-7.2-1.2,0.2-19.1c4.3-10.5,11.6-22,16.8-29.7
			c0.7,0.4,1.5,0.7,2.3,1c0.8,0.3,1.6,0.5,2.5,0.6c-1.5,9.1-4.1,22.3-8.4,32.9C85.6,238.7,79.4,234.8,79.4,234.8z M103.3,379.8
			c-4.2-3.1-9.2-7.6-9.2-12.1c0-2,1-4,3.6-5.9c8.5-6.2,21.8-3.3,31-0.8c13.7,3.8,29.3,7.3,42.6,10c-0.7,2.5-1.1,5.2-1.1,7.9
			c0,1.9,0.2,3.7,0.6,5.6c-11.4,2.1-24.6,3.8-37.3,3.8C122.8,388.3,111.8,386.1,103.3,379.8z M176.3,432.8
			c-3.8,8.5-9.8,20.2-20.2,22.6c-3.1,0.7-5.4,0.2-7-1.1c-3.6-2.8-4.1-9.4-4-14.5c0.3-10.3,5.5-19.9,12.1-27.8
			c5.3-6.2,11.2-12.1,17.2-17.5c3.2,5.3,8.1,9.8,13.9,12.8C184.2,415.8,180,424.5,176.3,432.8z M181.9,379.2
			c0-12.7,11.2-23.1,25.1-23.1c13.9,0,25.1,10.3,25.1,23.1s-11.2,23.1-25.1,23.1C193.1,402.3,181.9,391.9,181.9,379.2z M207,477.1
			c0,0-11.8,1.8-11.8-22.8c0-14.5,4.1-31.2,7.4-42.6c1.4,0.2,2.9,0.3,4.4,0.3c1.5,0,2.9-0.1,4.4-0.3c3.3,11.4,7.4,28.2,7.4,42.6
			C218.7,478.9,207,477.1,207,477.1z M263.2,454.3c-1.6,1.3-3.9,1.8-7,1.1c-10.3-2.4-16.4-14.1-20.2-22.6c-3.6-8-7.7-16.6-11.8-24.7
			c6.1-2.9,11.1-7.3,14.5-12.6c5.7,5.1,11.3,10.7,16.3,16.6c6.7,7.9,11.8,17.5,12.1,27.8C267.4,445,266.9,451.5,263.2,454.3z
			 M243.1,385c0.4-2,0.6-4,0.6-6c0-2.9-0.5-5.7-1.3-8.4c12.7-2.6,27.2-5.9,40-9.5c9.2-2.5,22.5-5.4,31,0.8c2.5,1.9,3.6,3.9,3.6,5.9
			c0,4.5-5,9-9.2,12.1c-8.6,6.3-19.5,8.5-30.1,8.5C265.9,388.3,253.8,386.8,243.1,385z M291.6,489.5c0.2-1.1,1.1-2.7,3.1-4.9
			c6.7-7.3,15.9-11.7,22.2-14.4c5.5-2.3,11.4-5,17.3-7.7c-2.3,4.8-3.3,8.9-2.7,11.7c-4.6,3.2-9.3,6.4-13.9,9.3
			c-7.6,4.8-15.2,8.5-20.7,8.7C294.3,492.4,291.2,492,291.6,489.5z M339.9,478.6c-7.5,6.6-15.5,12.7-24.1,18.1
			c6.2-6.5,12.4-13.1,17.9-19.1c0.9,0.6,1.9,0.9,3.2,1c0.9,0.1,1.9,0,3-0.2C340,478.5,340,478.5,339.9,478.6z M350.2,468.7
			c-2.5,1.1-4.8,1.8-6.6,1.7c-6.2-0.4-5.1-8.6,2.5-18.4c7.6-9.8,18.8-17.4,25-17.1c1.9,0.1,3,1,3.6,2.4
			C367.7,448.7,359.4,459.2,350.2,468.7z M395.4,390.1c-3.5,12.6-8.3,24.6-14.3,35.9c-0.4,0.4-0.8,0.9-1.1,1.3
			c-0.7-0.3-1.6-0.6-2.6-0.6c-1.4-0.1-3.1,0.2-4.8,0.6c5.7-9.1,12-19.4,17.3-28.6C391.4,396.2,393.3,393.2,395.4,390.1z M383.4,260
			c-0.7,1.7-2,2.9-4.2,3.1c-7.4,0.6-16.4-15.8-21.7-23.6c-5.1-7.4-11-15.4-16.7-23c3.2-4.5,5.2-10.4,5.8-16.8
			c5.8,4.1,11.7,8.6,17.1,13.5c7.2,6.5,13.7,14.9,17,25.3C382.3,243.6,384.9,256.2,383.4,260z"/>
	</g>
</g>
</svg>
